<?xml version="1.0"?>
<svg xmlns="http://www.w3.org/2000/svg" xmlns:xlink="http://www.w3.org/1999/xlink" viewBox="0 0 192 192" version="1.1" width="100px" height="100px"><g font-family="none" font-size="none" font-weight="none" style="mix-blend-mode: normal" fill="none" fill-rule="nonzero" stroke="none" stroke-dasharray="" stroke-dashoffset="0" stroke-linecap="butt" stroke-linejoin="miter" stroke-miterlimit="10" stroke-width="1" text-anchor="none"><path fill="none" d="M 0 192 v -192 h 192 v 192 Z"/><path fill="#cccccc" d="M 96 192 c -53.0193 0 -96 -42.9807 -96 -96 v 0 c 0 -53.0193 42.9807 -96 96 -96 v 0 c 53.0193 0 96 42.9807 96 96 v 0 c 0 53.0193 -42.9807 96 -96 96 Z"/><g fill="#ffffff"><g id="surface1"><path d="M 54.6775 47.3184 l -7.41686 7.41686 l 41.3226 41.3225 l -41.5671 41.6486 l 7.33535 7.33535 l 41.6485 -41.567 l 41.567 41.567 l 7.41699 -7.41699 l -41.567 -41.567 l 41.3224 -41.3225 l -7.41673 -7.41686 l -41.3226 41.3226 Z"/></g></g><path fill="none" d="M 96 192 c -53.0193 0 -96 -42.9807 -96 -96 v 0 c 0 -53.0193 42.9807 -96 96 -96 v 0 c 53.0193 0 96 42.9807 96 96 v 0 c 0 53.0193 -42.9807 96 -96 96 Z"/><path fill="none" d="M 96 188.16 c -50.8986 0 -92.16 -41.2614 -92.16 -92.16 v 0 c 0 -50.8986 41.2614 -92.16 92.16 -92.16 v 0 c 50.8986 0 92.16 41.2614 92.16 92.16 v 0 c 0 50.8986 -41.2614 92.16 -92.16 92.16 Z"/><path fill="none" d="M 96 192 c -53.0193 0 -96 -42.9807 -96 -96 v 0 c 0 -53.0193 42.9807 -96 96 -96 v 0 c 53.0193 0 96 42.9807 96 96 v 0 c 0 53.0193 -42.9807 96 -96 96 Z"/><path fill="none" d="M 96 188.16 c -50.8986 0 -92.16 -41.2614 -92.16 -92.16 v 0 c 0 -50.8986 41.2614 -92.16 92.16 -92.16 v 0 c 50.8986 0 92.16 41.2614 92.16 92.16 v 0 c 0 50.8986 -41.2614 92.16 -92.16 92.16 Z"/><path fill="none" d="M 96 192 c -53.0193 0 -96 -42.9807 -96 -96 v 0 c 0 -53.0193 42.9807 -96 96 -96 v 0 c 53.0193 0 96 42.9807 96 96 v 0 c 0 53.0193 -42.9807 96 -96 96 Z"/><path fill="none" d="M 96 188.16 c -50.8986 0 -92.16 -41.2614 -92.16 -92.16 v 0 c 0 -50.8986 41.2614 -92.16 92.16 -92.16 v 0 c 50.8986 0 92.16 41.2614 92.16 92.16 v 0 c 0 50.8986 -41.2614 92.16 -92.16 92.16 Z"/></g></svg>
